<mxfile host="app.diagrams.net" modified="2023-04-26T09:19:02.803Z" agent="Mozilla/5.0 (Windows NT 10.0; Win64; x64) AppleWebKit/537.36 (KHTML, like Gecko) Chrome/112.0.0.0 Safari/537.36" etag="iTaq0aHmKrXRqTMcXOyd" version="21.2.2" type="onedrive">
  <diagram name="Pagina-1" id="szxeHNSekjVOMj91kn5m">
    <mxGraphModel grid="1" page="1" gridSize="10" guides="1" tooltips="1" connect="1" arrows="1" fold="1" pageScale="1" pageWidth="827" pageHeight="1169" math="0" shadow="0">
      <root>
        <mxCell id="0" />
        <mxCell id="1" parent="0" />
        <mxCell id="ab6DNUeRi2vpeAUVdNdf-18" value="" style="rounded=0;whiteSpace=wrap;html=1;" vertex="1" parent="1">
          <mxGeometry x="40" y="680" width="720" height="450" as="geometry" />
        </mxCell>
        <mxCell id="ab6DNUeRi2vpeAUVdNdf-19" value="" style="rounded=0;whiteSpace=wrap;html=1;fillColor=#000000;" vertex="1" parent="1">
          <mxGeometry x="40" y="680" width="720" height="60" as="geometry" />
        </mxCell>
        <mxCell id="ab6DNUeRi2vpeAUVdNdf-20" value="logo IL NOSTRO SITO" style="text;html=1;strokeColor=none;fillColor=none;align=center;verticalAlign=middle;whiteSpace=wrap;rounded=0;fontColor=#FFFFFF;fontSize=19;fontStyle=0;fontFamily=Verdana;" vertex="1" parent="1">
          <mxGeometry x="50" y="687.5" width="220" height="45" as="geometry" />
        </mxCell>
        <mxCell id="ab6DNUeRi2vpeAUVdNdf-21" value="Home Catalogo Login" style="text;html=1;strokeColor=none;fillColor=none;align=center;verticalAlign=middle;whiteSpace=wrap;rounded=0;fontColor=#FFFFFF;fontSize=14;" vertex="1" parent="1">
          <mxGeometry x="570" y="702.5" width="180" height="30" as="geometry" />
        </mxCell>
        <mxCell id="ab6DNUeRi2vpeAUVdNdf-22" value="&#xa;&#xa;&#xa;" style="rounded=0;whiteSpace=wrap;html=1;fillColor=#000000;" vertex="1" parent="1">
          <mxGeometry x="40" y="1070" width="720" height="60" as="geometry" />
        </mxCell>
        <mxCell id="ab6DNUeRi2vpeAUVdNdf-23" value="Tutti i diritti sno riservati al IL NOSTRO SITO" style="text;html=1;strokeColor=none;fillColor=none;align=center;verticalAlign=middle;whiteSpace=wrap;rounded=0;fontColor=#FFFFFF;" vertex="1" parent="1">
          <mxGeometry x="40" y="1100" width="270" height="30" as="geometry" />
        </mxCell>
        <mxCell id="ab6DNUeRi2vpeAUVdNdf-24" value="Contattaci&lt;br&gt;&amp;nbsp; &amp;nbsp; &amp;nbsp; &amp;nbsp; &amp;nbsp; +39 123456" style="text;html=1;strokeColor=none;fillColor=none;align=center;verticalAlign=middle;whiteSpace=wrap;rounded=0;fontColor=#FFFFFF;" vertex="1" parent="1">
          <mxGeometry x="650" y="1070" width="100" height="60" as="geometry" />
        </mxCell>
        <mxCell id="ab6DNUeRi2vpeAUVdNdf-25" value="" style="shape=mxgraph.signs.tech.telephone_3;html=1;pointerEvents=1;fillColor=#FFFFFF;strokeColor=none;verticalLabelPosition=bottom;verticalAlign=top;align=center;sketch=0;fontColor=#FFFFFF;" vertex="1" parent="1">
          <mxGeometry x="670" y="1100" width="10" height="10" as="geometry" />
        </mxCell>
        <mxCell id="ab6DNUeRi2vpeAUVdNdf-26" style="edgeStyle=orthogonalEdgeStyle;rounded=0;orthogonalLoop=1;jettySize=auto;html=1;exitX=0.5;exitY=1;exitDx=0;exitDy=0;" edge="1" parent="1" source="ab6DNUeRi2vpeAUVdNdf-18" target="ab6DNUeRi2vpeAUVdNdf-18">
          <mxGeometry relative="1" as="geometry" />
        </mxCell>
        <mxCell id="ab6DNUeRi2vpeAUVdNdf-27" value="Modifica dati personali" style="text;html=1;strokeColor=none;fillColor=none;align=center;verticalAlign=middle;whiteSpace=wrap;rounded=0;fontStyle=1;fontSize=18;" vertex="1" parent="1">
          <mxGeometry x="277.5" y="750" width="245" height="50" as="geometry" />
        </mxCell>
        <mxCell id="ab6DNUeRi2vpeAUVdNdf-28" value="" style="line;strokeWidth=1;rotatable=0;dashed=0;labelPosition=right;align=left;verticalAlign=middle;spacingTop=0;spacingLeft=6;points=[];portConstraint=eastwest;" vertex="1" parent="1">
          <mxGeometry x="120" y="830" width="120" height="10" as="geometry" />
        </mxCell>
        <mxCell id="ab6DNUeRi2vpeAUVdNdf-29" value="" style="line;strokeWidth=1;rotatable=0;dashed=0;labelPosition=right;align=left;verticalAlign=middle;spacingTop=0;spacingLeft=6;points=[];portConstraint=eastwest;" vertex="1" parent="1">
          <mxGeometry x="330" y="830" width="120" height="10" as="geometry" />
        </mxCell>
        <mxCell id="ab6DNUeRi2vpeAUVdNdf-30" value="Nome" style="text;html=1;strokeColor=none;fillColor=none;align=center;verticalAlign=middle;whiteSpace=wrap;rounded=0;" vertex="1" parent="1">
          <mxGeometry x="60" y="810" width="60" height="30" as="geometry" />
        </mxCell>
        <mxCell id="ab6DNUeRi2vpeAUVdNdf-31" value="Cognome" style="text;html=1;strokeColor=none;fillColor=none;align=center;verticalAlign=middle;whiteSpace=wrap;rounded=0;" vertex="1" parent="1">
          <mxGeometry x="270" y="810" width="60" height="30" as="geometry" />
        </mxCell>
        <mxCell id="ab6DNUeRi2vpeAUVdNdf-32" value="" style="line;strokeWidth=1;rotatable=0;dashed=0;labelPosition=right;align=left;verticalAlign=middle;spacingTop=0;spacingLeft=6;points=[];portConstraint=eastwest;" vertex="1" parent="1">
          <mxGeometry x="130" y="1040" width="120" height="10" as="geometry" />
        </mxCell>
        <mxCell id="ab6DNUeRi2vpeAUVdNdf-33" value="E-mail" style="text;html=1;strokeColor=none;fillColor=none;align=center;verticalAlign=middle;whiteSpace=wrap;rounded=0;" vertex="1" parent="1">
          <mxGeometry x="270" y="940" width="60" height="30" as="geometry" />
        </mxCell>
        <mxCell id="ab6DNUeRi2vpeAUVdNdf-34" value="" style="line;strokeWidth=1;rotatable=0;dashed=0;labelPosition=right;align=left;verticalAlign=middle;spacingTop=0;spacingLeft=6;points=[];portConstraint=eastwest;" vertex="1" parent="1">
          <mxGeometry x="330" y="1040" width="120" height="10" as="geometry" />
        </mxCell>
        <mxCell id="ab6DNUeRi2vpeAUVdNdf-35" value="Password" style="text;html=1;strokeColor=none;fillColor=none;align=center;verticalAlign=middle;whiteSpace=wrap;rounded=0;" vertex="1" parent="1">
          <mxGeometry x="270" y="1020" width="60" height="30" as="geometry" />
        </mxCell>
        <mxCell id="ab6DNUeRi2vpeAUVdNdf-36" value="Sesso" style="text;html=1;strokeColor=none;fillColor=none;align=center;verticalAlign=middle;whiteSpace=wrap;rounded=0;" vertex="1" parent="1">
          <mxGeometry x="60" y="880" width="60" height="30" as="geometry" />
        </mxCell>
        <mxCell id="ab6DNUeRi2vpeAUVdNdf-37" value="" style="ellipse;whiteSpace=wrap;html=1;aspect=fixed;" vertex="1" parent="1">
          <mxGeometry x="135" y="890" width="10" height="10" as="geometry" />
        </mxCell>
        <mxCell id="ab6DNUeRi2vpeAUVdNdf-38" value="" style="ellipse;whiteSpace=wrap;html=1;aspect=fixed;" vertex="1" parent="1">
          <mxGeometry x="240" y="890" width="10" height="10" as="geometry" />
        </mxCell>
        <mxCell id="ab6DNUeRi2vpeAUVdNdf-39" value="Maschio" style="text;html=1;strokeColor=none;fillColor=none;align=center;verticalAlign=middle;whiteSpace=wrap;rounded=0;" vertex="1" parent="1">
          <mxGeometry x="145" y="880" width="60" height="30" as="geometry" />
        </mxCell>
        <mxCell id="ab6DNUeRi2vpeAUVdNdf-40" value="Femmina" style="text;html=1;strokeColor=none;fillColor=none;align=center;verticalAlign=middle;whiteSpace=wrap;rounded=0;" vertex="1" parent="1">
          <mxGeometry x="260" y="880" width="60" height="30" as="geometry" />
        </mxCell>
        <mxCell id="ab6DNUeRi2vpeAUVdNdf-41" value="EtÃ " style="text;html=1;strokeColor=none;fillColor=none;align=center;verticalAlign=middle;whiteSpace=wrap;rounded=0;" vertex="1" parent="1">
          <mxGeometry x="470" y="810" width="60" height="30" as="geometry" />
        </mxCell>
        <mxCell id="ab6DNUeRi2vpeAUVdNdf-42" value="" style="line;strokeWidth=1;rotatable=0;dashed=0;labelPosition=right;align=left;verticalAlign=middle;spacingTop=0;spacingLeft=6;points=[];portConstraint=eastwest;" vertex="1" parent="1">
          <mxGeometry x="530" y="830" width="120" height="10" as="geometry" />
        </mxCell>
        <mxCell id="ab6DNUeRi2vpeAUVdNdf-43" value="Telefono" style="text;html=1;strokeColor=none;fillColor=none;align=center;verticalAlign=middle;whiteSpace=wrap;rounded=0;" vertex="1" parent="1">
          <mxGeometry x="60" y="940" width="60" height="30" as="geometry" />
        </mxCell>
        <mxCell id="ab6DNUeRi2vpeAUVdNdf-44" value="" style="line;strokeWidth=1;rotatable=0;dashed=0;labelPosition=right;align=left;verticalAlign=middle;spacingTop=0;spacingLeft=6;points=[];portConstraint=eastwest;" vertex="1" parent="1">
          <mxGeometry x="120" y="960" width="120" height="10" as="geometry" />
        </mxCell>
        <mxCell id="ab6DNUeRi2vpeAUVdNdf-45" value="" style="line;strokeWidth=1;rotatable=0;dashed=0;labelPosition=right;align=left;verticalAlign=middle;spacingTop=0;spacingLeft=6;points=[];portConstraint=eastwest;" vertex="1" parent="1">
          <mxGeometry x="330" y="960" width="120" height="10" as="geometry" />
        </mxCell>
        <mxCell id="ab6DNUeRi2vpeAUVdNdf-46" value="Username" style="text;html=1;strokeColor=none;fillColor=none;align=center;verticalAlign=middle;whiteSpace=wrap;rounded=0;" vertex="1" parent="1">
          <mxGeometry x="60" y="1020" width="60" height="30" as="geometry" />
        </mxCell>
        <mxCell id="ab6DNUeRi2vpeAUVdNdf-47" value="Salva modifiche" style="rounded=1;whiteSpace=wrap;html=1;" vertex="1" parent="1">
          <mxGeometry x="600" y="1015" width="120" height="40" as="geometry" />
        </mxCell>
      </root>
    </mxGraphModel>
  </diagram>
</mxfile>
